<?xml version="1.0" encoding="UTF-8"?>
<svg width="42px" height="42px" viewBox="0 0 42 42" version="1.1" xmlns="http://www.w3.org/2000/svg" xmlns:xlink="http://www.w3.org/1999/xlink">
    <!-- Generator: Sketch 50.2 (55047) - http://www.bohemiancoding.com/sketch -->
    <title>ic_promoInactive</title>
    <desc>Created with Sketch.</desc>
    <defs></defs>
    <g id="Web-Portal-Wireframe" stroke="none" stroke-width="1" fill="none" fill-rule="evenodd">
        <g id="ic_promoInactive" transform="translate(1.000000, 1.000000)">
            <circle id="Oval-5-Copy" stroke="#979797" cx="20" cy="20" r="20"></circle>
            <path d="M19.2432432,11 L17.1811784,12.5646115 L14.6216216,12.2356419 L13.6186784,14.6186655 L11.2356419,15.6216191 L11.5646243,18.1811758 L10,20.2432458 L11.5646243,22.3053364 L11.2356419,24.8648674 L13.6186784,25.8678107 L14.6216216,28.2508472 L17.1811784,27.9218647 L19.2432432,29.4864891 L21.3053081,27.9218647 L23.8648649,28.2508472 L24.8678081,25.8678107 L27.2508446,24.8648674 L26.9218622,22.3053364 L28.4864855,20.2432458 L26.9218622,18.1811758 L27.2508446,15.6216191 L24.8678081,14.6186655 L23.8648649,12.2356419 L21.3053081,12.5646115 L19.2432432,11 Z M23.3513514,15.6055718 C23.5650037,15.6003467 23.7595605,15.7279818 23.8398514,15.9260424 C23.9201422,16.1241031 23.8693827,16.3511858 23.7124027,16.4962096 L15.4961865,24.7124053 C15.3666737,24.8459556 15.1750635,24.8990238 14.9952984,24.8511306 C14.8155333,24.8032374 14.6757241,24.6618723 14.6298234,24.4815882 C14.5839227,24.301304 14.6391082,24.1102928 14.7740838,23.9822661 L22.9903,15.7660447 C23.069526,15.6836029 23.1739981,15.6299573 23.2871622,15.6136082 C23.3083701,15.609609 23.329809,15.6069506 23.3513514,15.6056488 L23.3513514,15.6055718 Z M16.6756757,15.6214907 C17.8039932,15.6214907 18.7297297,16.5472015 18.7297297,17.6755447 C18.7297297,18.803888 17.8039932,19.7296039 16.6756757,19.7296039 C15.5473324,19.7296039 14.6216216,18.803888 14.6216216,17.6755447 C14.6216216,16.5472015 15.5473324,15.6214907 16.6756757,15.6214907 Z M16.6756757,16.6485177 C16.1023892,16.6485177 15.6486486,17.1022582 15.6486486,17.6755447 C15.6486486,18.2488312 16.1023892,18.7025718 16.6756757,18.7025718 C17.2489365,18.7025718 17.7027027,18.2488312 17.7027027,17.6755447 C17.7027027,17.1022582 17.2489365,16.6485177 16.6756757,16.6485177 Z M21.8108108,20.7566309 C22.9391541,20.7566309 23.8648649,21.6823418 23.8648649,22.810685 C23.8648649,23.9390282 22.9391541,24.8647391 21.8108108,24.8647391 C20.6824932,24.8647391 19.7567568,23.9390282 19.7567568,22.810685 C19.7567568,21.6823418 20.6824932,20.7566309 21.8108108,20.7566309 Z M21.8108108,21.783658 C21.23755,21.783658 20.7837838,22.2373985 20.7837838,22.810685 C20.7837838,23.3839715 21.23755,23.837712 21.8108108,23.837712 C22.3840973,23.837712 22.8378378,23.3839715 22.8378378,22.810685 C22.8378378,22.2373985 22.3840973,21.783658 21.8108108,21.783658 Z" id="Shape" fill="#797979" fill-rule="nonzero"></path>
        </g>
    </g>
</svg>