<svg width="42px" height="42px" xmlns:dc="http://purl.org/dc/elements/1.1/" xmlns:cc="http://creativecommons.org/ns#" xmlns:rdf="http://www.w3.org/1999/02/22-rdf-syntax-ns#" xmlns:svg="http://www.w3.org/2000/svg" xmlns="http://www.w3.org/2000/svg" xmlns:sodipodi="http://sodipodi.sourceforge.net/DTD/sodipodi-0.dtd" xmlns:inkscape="http://www.inkscape.org/namespaces/inkscape" viewBox="0 0 80 80" version="1.1" x="0px" y="0px"><path style="" d="M 70.460575,2.9245577 C 69.846267,2.5433473 69.027272,2.7351122 68.646062,3.3494196 L 63.26613,12.019001 c -0.353783,0.570107 -0.669451,1.091123 -0.669451,1.091123 L 51.955927,30.257339 C 51.454369,29.531285 50.8158,28.885174 50.014335,28.387823 L 49.56646,28.109894 34.836165,51.847269 33.780459,51.192149 48.510755,27.454773 39.265334,21.717502 11.373065,66.664958 19.146896,71.48903 c 0.0031,-1.28527 0.315747,-2.579553 1.037622,-3.742828 l 0.138965,-0.223938 c 2.232439,-3.309926 6.797797,-4.154492 10.166835,-1.888361 1.076842,0.724317 1.917485,1.658091 2.471153,2.729861 L 52.138647,37.460387 c 0.549891,-0.88613 0.853929,-1.853513 0.952777,-2.820651 l 12.268628,-19.770483 0.06398,0.0397 c 0.614305,0.381209 1.4333,0.189444 1.81451,-0.424863 L 72.618474,5.8145127 C 72.999685,5.2002053 72.80792,4.3812104 72.193612,4 z M 34.690611,18.878644 c -3.106547,-1.927777 -7.144786,-0.982237 -9.072563,2.124311 L 4.67403,54.753537 c -1.5813304,2.54826 -1.2285314,5.733051 0.6637219,7.856018 l -1.1414343,2.482027 2.9553176,1.878242 1.5341792,-1.972446 1.6635346,1.032312 27.89227,-44.947456 z m -5.327567,47.429347 c -2.80679,-1.506519 -6.337948,-0.695249 -8.127246,1.957654 l -0.119114,0.191947 c -1.752337,2.823833 -0.909704,6.556319 1.89481,8.442732 2.880301,1.93739 6.762511,1.209596 8.671096,-1.620167 1.908583,-2.829764 1.104601,-6.69729 -1.775698,-8.634679 -0.18001,-0.121101 -0.356727,-0.237056 -0.543848,-0.337487 z" fill="#e77a0a" stroke-width="0"></path></svg>